<?xml version="1.0" standalone="no"?>
<!DOCTYPE svg PUBLIC "-//W3C//DTD SVG 20010904//EN"
 "http://www.w3.org/TR/2001/REC-SVG-20010904/DTD/svg10.dtd">
<svg version="1.0" xmlns="http://www.w3.org/2000/svg"
 width="42.000000pt" height="42.000000pt" viewBox="0 0 882.000000 877.000000"
 preserveAspectRatio="xMidYMid meet">

<g transform="translate(0.000000,877.000000) scale(0.100000,-0.100000)"
fill="#334d40" stroke="none">
<path d="M2980 8706 c-208 -71 -383 -144 -575 -240 -156 -79 -160 -82 -157
-111 11 -136 13 -386 3 -457 -89 -633 -542 -1132 -1164 -1283 -189 -46 -351
-52 -612 -22 -40 4 -239 -424 -347 -747 l-59 -178 23 -16 c259 -182 468 -467
567 -772 122 -381 92 -800 -84 -1150 -98 -195 -278 -414 -437 -532 -37 -28
-68 -52 -68 -54 0 -1 23 -71 50 -154 70 -211 137 -375 241 -588 l90 -183 72 8
c127 14 393 8 492 -11 301 -59 560 -194 781 -408 135 -131 225 -253 304 -413
74 -149 115 -274 142 -430 17 -103 19 -146 15 -300 -4 -99 -9 -192 -13 -207
-6 -27 -3 -29 176 -118 198 -97 411 -184 615 -251 l129 -42 31 38 c254 324
552 515 928 597 87 19 133 22 307 22 222 0 306 -12 477 -69 292 -98 584 -309
749 -544 35 -49 28 -49 219 16 206 70 366 137 563 234 169 83 183 92 178 113
-18 73 -27 270 -16 381 31 343 152 630 372 885 209 244 511 419 845 492 79 17
134 21 278 22 99 1 209 -1 245 -4 l65 -5 90 180 c50 99 114 240 143 313 54
138 142 394 142 417 0 7 -40 44 -88 83 -284 227 -482 562 -548 927 -27 148
-25 395 4 542 65 329 209 594 448 823 49 47 110 101 137 119 26 19 47 40 47
46 0 20 -94 294 -144 420 -26 66 -90 207 -143 313 -74 152 -98 192 -110 188
-9 -4 -71 -12 -139 -18 -217 -20 -471 16 -679 98 -489 194 -837 608 -946 1128
-24 110 -32 375 -16 511 l8 70 -108 54 c-179 90 -291 141 -433 196 -141 55
-350 125 -373 125 -8 0 -29 -21 -48 -47 -53 -75 -206 -230 -292 -295 -423
-323 -982 -405 -1475 -214 -249 96 -471 256 -636 459 -43 54 -86 97 -95 96 -9
0 -86 -24 -171 -53z m1687 -1217 c619 -50 1171 -266 1673 -653 134 -103 411
-380 517 -516 485 -627 715 -1386 653 -2157 -123 -1503 -1299 -2693 -2802
-2834 -181 -17 -556 -7 -723 19 -564 88 -1053 301 -1491 649 -137 110 -364
336 -474 473 -389 487 -618 1064 -671 1689 -14 170 -7 495 15 651 75 541 283
1046 609 1473 168 222 422 469 646 631 210 151 493 302 730 390 416 155 885
221 1318 185z"/>
<path d="M2504 6188 c-311 -320 -513 -683 -618 -1108 -110 -448 -111 -909 -1
-1334 119 -465 353 -866 702 -1207 131 -128 230 -207 388 -311 246 -161 500
-274 799 -353 l128 -34 -6 87 c-54 752 -94 1092 -168 1422 -74 332 -133 504
-383 1105 -221 531 -407 1006 -398 1015 5 6 12 -3 145 -185 440 -602 764
-1203 947 -1758 l23 -68 43 104 c82 201 218 429 377 629 45 57 153 176 241
265 l159 162 -26 93 c-170 590 -839 1136 -1776 1449 -149 50 -437 129 -467
129 -6 0 -55 -46 -109 -102z"/>
<path d="M6665 5451 c-787 -323 -1370 -684 -1800 -1115 -346 -347 -579 -730
-676 -1114 l-30 -116 25 -111 c47 -210 86 -483 109 -752 7 -84 16 -155 19
-158 9 -9 502 485 659 660 400 446 814 956 1279 1577 101 136 186 245 188 244
10 -10 -150 -388 -264 -626 -251 -520 -561 -1006 -961 -1507 -97 -122 -320
-385 -517 -610 l-38 -44 53 6 c427 50 785 180 1129 411 741 496 1199 1346
1201 2229 1 271 -26 474 -97 725 -37 129 -122 360 -133 359 -3 0 -69 -26 -146
-58z"/>
</g>
</svg>
